<?xml version="1.0" encoding="utf-8" standalone="no"?>
<!DOCTYPE svg PUBLIC "-//W3C//DTD SVG 1.1//EN"
  "http://www.w3.org/Graphics/SVG/1.1/DTD/svg11.dtd">
<!-- Created with matplotlib (https://matplotlib.org/) -->
<svg height="575.725937pt" version="1.1" viewBox="0 0 580.459219 575.725937" width="580.459219pt" xmlns="http://www.w3.org/2000/svg" xmlns:xlink="http://www.w3.org/1999/xlink">
 <defs>
  <style type="text/css">
*{stroke-linecap:butt;stroke-linejoin:round;}
  </style>
 </defs>
 <g id="figure_1">
  <g id="patch_1">
   <path d="M 0 575.725937 
L 580.459219 575.725937 
L 580.459219 0 
L 0 0 
z
" style="fill:#ffffff;"/>
  </g>
  <g id="axes_1">
   <g id="patch_2">
    <path d="M 126.859219 533.88 
L 573.259219 533.88 
L 573.259219 7.2 
L 126.859219 7.2 
z
" style="fill:#ffffff;"/>
   </g>
   <g id="line2d_1">
    <path clip-path="url(#pf72fa25161)" d="M 126.859219 533.88 
L 126.859219 7.2 
" style="fill:none;stroke:#999999;stroke-linecap:square;stroke-width:1.5;"/>
   </g>
   <g id="patch_3">
    <path clip-path="url(#pf72fa25161)" d="M 126.859219 517.578 
L 127.901394 517.578 
L 127.901394 500.022 
L 126.859219 500.022 
z
" style="fill:#008bfb;"/>
   </g>
   <g id="patch_4">
    <path clip-path="url(#pf72fa25161)" d="M 126.859219 492.498 
L 129.500926 492.498 
L 129.500926 474.942 
L 126.859219 474.942 
z
" style="fill:#008bfb;"/>
   </g>
   <g id="patch_5">
    <path clip-path="url(#pf72fa25161)" d="M 126.859219 467.418 
L 127.609768 467.418 
L 127.609768 449.862 
L 126.859219 449.862 
z
" style="fill:#008bfb;"/>
   </g>
   <g id="patch_6">
    <path clip-path="url(#pf72fa25161)" d="M 126.859219 442.338 
L 130.352482 442.338 
L 130.352482 424.782 
L 126.859219 424.782 
z
" style="fill:#008bfb;"/>
   </g>
   <g id="patch_7">
    <path clip-path="url(#pf72fa25161)" d="M 126.859219 417.258 
L 127.59026 417.258 
L 127.59026 399.702 
L 126.859219 399.702 
z
" style="fill:#008bfb;"/>
   </g>
   <g id="patch_8">
    <path clip-path="url(#pf72fa25161)" d="M 126.859219 392.178 
L 126.859219 392.178 
L 126.859219 374.622 
L 126.859219 374.622 
z
" style="fill:#008bfb;"/>
   </g>
   <g id="patch_9">
    <path clip-path="url(#pf72fa25161)" d="M 126.859219 367.098 
L 126.859219 367.098 
L 126.859219 349.542 
L 126.859219 349.542 
z
" style="fill:#008bfb;"/>
   </g>
   <g id="patch_10">
    <path clip-path="url(#pf72fa25161)" d="M 126.859219 342.018 
L 126.859219 342.018 
L 126.859219 324.462 
L 126.859219 324.462 
z
" style="fill:#008bfb;"/>
   </g>
   <g id="patch_11">
    <path clip-path="url(#pf72fa25161)" d="M 126.859219 316.938 
L 144.492319 316.938 
L 144.492319 299.382 
L 126.859219 299.382 
z
" style="fill:#008bfb;"/>
   </g>
   <g id="patch_12">
    <path clip-path="url(#pf72fa25161)" d="M 126.859219 291.858 
L 149.552706 291.858 
L 149.552706 274.302 
L 126.859219 274.302 
z
" style="fill:#008bfb;"/>
   </g>
   <g id="patch_13">
    <path clip-path="url(#pf72fa25161)" d="M 126.859219 266.778 
L 153.298447 266.778 
L 153.298447 249.222 
L 126.859219 249.222 
z
" style="fill:#008bfb;"/>
   </g>
   <g id="patch_14">
    <path clip-path="url(#pf72fa25161)" d="M 126.859219 241.698 
L 150.452717 241.698 
L 150.452717 224.142 
L 126.859219 224.142 
z
" style="fill:#008bfb;"/>
   </g>
   <g id="patch_15">
    <path clip-path="url(#pf72fa25161)" d="M 126.859219 216.618 
L 142.336481 216.618 
L 142.336481 199.062 
L 126.859219 199.062 
z
" style="fill:#008bfb;"/>
   </g>
   <g id="patch_16">
    <path clip-path="url(#pf72fa25161)" d="M 126.859219 191.538 
L 183.623443 191.538 
L 183.623443 173.982 
L 126.859219 173.982 
z
" style="fill:#008bfb;"/>
   </g>
   <g id="patch_17">
    <path clip-path="url(#pf72fa25161)" d="M 126.859219 166.458 
L 186.623432 166.458 
L 186.623432 148.902 
L 126.859219 148.902 
z
" style="fill:#008bfb;"/>
   </g>
   <g id="patch_18">
    <path clip-path="url(#pf72fa25161)" d="M 126.859219 141.378 
L 138.146169 141.378 
L 138.146169 123.822 
L 126.859219 123.822 
z
" style="fill:#008bfb;"/>
   </g>
   <g id="patch_19">
    <path clip-path="url(#pf72fa25161)" d="M 126.859219 116.298 
L 194.87284 116.298 
L 194.87284 98.742 
L 126.859219 98.742 
z
" style="fill:#008bfb;"/>
   </g>
   <g id="patch_20">
    <path clip-path="url(#pf72fa25161)" d="M 126.859219 91.218 
L 157.819641 91.218 
L 157.819641 73.662 
L 126.859219 73.662 
z
" style="fill:#008bfb;"/>
   </g>
   <g id="patch_21">
    <path clip-path="url(#pf72fa25161)" d="M 126.859219 66.138 
L 269.934409 66.138 
L 269.934409 48.582 
L 126.859219 48.582 
z
" style="fill:#008bfb;"/>
   </g>
   <g id="patch_22">
    <path clip-path="url(#pf72fa25161)" d="M 126.859219 41.058 
L 323.347365 41.058 
L 323.347365 23.502 
L 126.859219 23.502 
z
" style="fill:#008bfb;"/>
   </g>
   <g id="patch_23">
    <path clip-path="url(#pf72fa25161)" d="M 127.901394 517.578 
L 128.037947 517.578 
L 128.037947 500.022 
L 127.901394 500.022 
z
" style="fill:#c44ed4;"/>
   </g>
   <g id="patch_24">
    <path clip-path="url(#pf72fa25161)" d="M 129.500926 492.498 
L 132.5445 492.498 
L 132.5445 474.942 
L 129.500926 474.942 
z
" style="fill:#c44ed4;"/>
   </g>
   <g id="patch_25">
    <path clip-path="url(#pf72fa25161)" d="M 127.609768 467.418 
L 129.557897 467.418 
L 129.557897 449.862 
L 127.609768 449.862 
z
" style="fill:#c44ed4;"/>
   </g>
   <g id="patch_26">
    <path clip-path="url(#pf72fa25161)" d="M 130.352482 442.338 
L 133.219386 442.338 
L 133.219386 424.782 
L 130.352482 424.782 
z
" style="fill:#c44ed4;"/>
   </g>
   <g id="patch_27">
    <path clip-path="url(#pf72fa25161)" d="M 127.59026 417.258 
L 134.285006 417.258 
L 134.285006 399.702 
L 127.59026 399.702 
z
" style="fill:#c44ed4;"/>
   </g>
   <g id="patch_28">
    <path clip-path="url(#pf72fa25161)" d="M 126.859219 392.178 
L 134.720567 392.178 
L 134.720567 374.622 
L 126.859219 374.622 
z
" style="fill:#c44ed4;"/>
   </g>
   <g id="patch_29">
    <path clip-path="url(#pf72fa25161)" d="M 126.859219 367.098 
L 129.763146 367.098 
L 129.763146 349.542 
L 126.859219 349.542 
z
" style="fill:#c44ed4;"/>
   </g>
   <g id="patch_30">
    <path clip-path="url(#pf72fa25161)" d="M 126.859219 342.018 
L 140.590791 342.018 
L 140.590791 324.462 
L 126.859219 324.462 
z
" style="fill:#c44ed4;"/>
   </g>
   <g id="patch_31">
    <path clip-path="url(#pf72fa25161)" d="M 144.492319 316.938 
L 146.815081 316.938 
L 146.815081 299.382 
L 144.492319 299.382 
z
" style="fill:#c44ed4;"/>
   </g>
   <g id="patch_32">
    <path clip-path="url(#pf72fa25161)" d="M 149.552706 291.858 
L 149.763624 291.858 
L 149.763624 274.302 
L 149.552706 274.302 
z
" style="fill:#c44ed4;"/>
   </g>
   <g id="patch_33">
    <path clip-path="url(#pf72fa25161)" d="M 153.298447 266.778 
L 172.810971 266.778 
L 172.810971 249.222 
L 153.298447 249.222 
z
" style="fill:#c44ed4;"/>
   </g>
   <g id="patch_34">
    <path clip-path="url(#pf72fa25161)" d="M 150.452717 241.698 
L 156.444019 241.698 
L 156.444019 224.142 
L 150.452717 224.142 
z
" style="fill:#c44ed4;"/>
   </g>
   <g id="patch_35">
    <path clip-path="url(#pf72fa25161)" d="M 142.336481 216.618 
L 173.23254 216.618 
L 173.23254 199.062 
L 142.336481 199.062 
z
" style="fill:#c44ed4;"/>
   </g>
   <g id="patch_36">
    <path clip-path="url(#pf72fa25161)" d="M 183.623443 191.538 
L 209.219412 191.538 
L 209.219412 173.982 
L 183.623443 173.982 
z
" style="fill:#c44ed4;"/>
   </g>
   <g id="patch_37">
    <path clip-path="url(#pf72fa25161)" d="M 186.623432 166.458 
L 225.563586 166.458 
L 225.563586 148.902 
L 186.623432 148.902 
z
" style="fill:#c44ed4;"/>
   </g>
   <g id="patch_38">
    <path clip-path="url(#pf72fa25161)" d="M 138.146169 141.378 
L 157.98226 141.378 
L 157.98226 123.822 
L 138.146169 123.822 
z
" style="fill:#c44ed4;"/>
   </g>
   <g id="patch_39">
    <path clip-path="url(#pf72fa25161)" d="M 194.87284 116.298 
L 304.935942 116.298 
L 304.935942 98.742 
L 194.87284 98.742 
z
" style="fill:#c44ed4;"/>
   </g>
   <g id="patch_40">
    <path clip-path="url(#pf72fa25161)" d="M 157.819641 91.218 
L 304.090943 91.218 
L 304.090943 73.662 
L 157.819641 73.662 
z
" style="fill:#c44ed4;"/>
   </g>
   <g id="patch_41">
    <path clip-path="url(#pf72fa25161)" d="M 269.934409 66.138 
L 361.737258 66.138 
L 361.737258 48.582 
L 269.934409 48.582 
z
" style="fill:#c44ed4;"/>
   </g>
   <g id="patch_42">
    <path clip-path="url(#pf72fa25161)" d="M 323.347365 41.058 
L 330.138464 41.058 
L 330.138464 23.502 
L 323.347365 23.502 
z
" style="fill:#c44ed4;"/>
   </g>
   <g id="patch_43">
    <path clip-path="url(#pf72fa25161)" d="M 128.037947 517.578 
L 131.444381 517.578 
L 131.444381 500.022 
L 128.037947 500.022 
z
" style="fill:#ff004f;"/>
   </g>
   <g id="patch_44">
    <path clip-path="url(#pf72fa25161)" d="M 132.5445 492.498 
L 132.5445 492.498 
L 132.5445 474.942 
L 132.5445 474.942 
z
" style="fill:#ff004f;"/>
   </g>
   <g id="patch_45">
    <path clip-path="url(#pf72fa25161)" d="M 129.557897 467.418 
L 132.80055 467.418 
L 132.80055 449.862 
L 129.557897 449.862 
z
" style="fill:#ff004f;"/>
   </g>
   <g id="patch_46">
    <path clip-path="url(#pf72fa25161)" d="M 133.219386 442.338 
L 133.219386 442.338 
L 133.219386 424.782 
L 133.219386 424.782 
z
" style="fill:#ff004f;"/>
   </g>
   <g id="patch_47">
    <path clip-path="url(#pf72fa25161)" d="M 134.285006 417.258 
L 134.481926 417.258 
L 134.481926 399.702 
L 134.285006 399.702 
z
" style="fill:#ff004f;"/>
   </g>
   <g id="patch_48">
    <path clip-path="url(#pf72fa25161)" d="M 134.720567 392.178 
L 134.720567 392.178 
L 134.720567 374.622 
L 134.720567 374.622 
z
" style="fill:#ff004f;"/>
   </g>
   <g id="patch_49">
    <path clip-path="url(#pf72fa25161)" d="M 129.763146 367.098 
L 136.203515 367.098 
L 136.203515 349.542 
L 129.763146 349.542 
z
" style="fill:#ff004f;"/>
   </g>
   <g id="patch_50">
    <path clip-path="url(#pf72fa25161)" d="M 140.590791 342.018 
L 141.344933 342.018 
L 141.344933 324.462 
L 140.590791 324.462 
z
" style="fill:#ff004f;"/>
   </g>
   <g id="patch_51">
    <path clip-path="url(#pf72fa25161)" d="M 146.815081 316.938 
L 148.54305 316.938 
L 148.54305 299.382 
L 146.815081 299.382 
z
" style="fill:#ff004f;"/>
   </g>
   <g id="patch_52">
    <path clip-path="url(#pf72fa25161)" d="M 149.763624 291.858 
L 175.568471 291.858 
L 175.568471 274.302 
L 149.763624 274.302 
z
" style="fill:#ff004f;"/>
   </g>
   <g id="patch_53">
    <path clip-path="url(#pf72fa25161)" d="M 172.810971 266.778 
L 183.025309 266.778 
L 183.025309 249.222 
L 172.810971 249.222 
z
" style="fill:#ff004f;"/>
   </g>
   <g id="patch_54">
    <path clip-path="url(#pf72fa25161)" d="M 156.444019 241.698 
L 168.089455 241.698 
L 168.089455 224.142 
L 156.444019 224.142 
z
" style="fill:#ff004f;"/>
   </g>
   <g id="patch_55">
    <path clip-path="url(#pf72fa25161)" d="M 173.23254 216.618 
L 233.983726 216.618 
L 233.983726 199.062 
L 173.23254 199.062 
z
" style="fill:#ff004f;"/>
   </g>
   <g id="patch_56">
    <path clip-path="url(#pf72fa25161)" d="M 209.219412 191.538 
L 232.059829 191.538 
L 232.059829 173.982 
L 209.219412 173.982 
z
" style="fill:#ff004f;"/>
   </g>
   <g id="patch_57">
    <path clip-path="url(#pf72fa25161)" d="M 225.563586 166.458 
L 243.229208 166.458 
L 243.229208 148.902 
L 225.563586 148.902 
z
" style="fill:#ff004f;"/>
   </g>
   <g id="patch_58">
    <path clip-path="url(#pf72fa25161)" d="M 157.98226 141.378 
L 254.543973 141.378 
L 254.543973 123.822 
L 157.98226 123.822 
z
" style="fill:#ff004f;"/>
   </g>
   <g id="patch_59">
    <path clip-path="url(#pf72fa25161)" d="M 304.935942 116.298 
L 338.391851 116.298 
L 338.391851 98.742 
L 304.935942 98.742 
z
" style="fill:#ff004f;"/>
   </g>
   <g id="patch_60">
    <path clip-path="url(#pf72fa25161)" d="M 304.090943 91.218 
L 316.969333 91.218 
L 316.969333 73.662 
L 304.090943 73.662 
z
" style="fill:#ff004f;"/>
   </g>
   <g id="patch_61">
    <path clip-path="url(#pf72fa25161)" d="M 361.737258 66.138 
L 435.911174 66.138 
L 435.911174 48.582 
L 361.737258 48.582 
z
" style="fill:#ff004f;"/>
   </g>
   <g id="patch_62">
    <path clip-path="url(#pf72fa25161)" d="M 330.138464 41.058 
L 453.784363 41.058 
L 453.784363 23.502 
L 330.138464 23.502 
z
" style="fill:#ff004f;"/>
   </g>
   <g id="patch_63">
    <path clip-path="url(#pf72fa25161)" d="M 131.444381 517.578 
L 131.680402 517.578 
L 131.680402 500.022 
L 131.444381 500.022 
z
" style="fill:#009928;"/>
   </g>
   <g id="patch_64">
    <path clip-path="url(#pf72fa25161)" d="M 132.5445 492.498 
L 132.901266 492.498 
L 132.901266 474.942 
L 132.5445 474.942 
z
" style="fill:#009928;"/>
   </g>
   <g id="patch_65">
    <path clip-path="url(#pf72fa25161)" d="M 132.80055 467.418 
L 133.240787 467.418 
L 133.240787 449.862 
L 132.80055 449.862 
z
" style="fill:#009928;"/>
   </g>
   <g id="patch_66">
    <path clip-path="url(#pf72fa25161)" d="M 133.219386 442.338 
L 133.471005 442.338 
L 133.471005 424.782 
L 133.219386 424.782 
z
" style="fill:#009928;"/>
   </g>
   <g id="patch_67">
    <path clip-path="url(#pf72fa25161)" d="M 134.481926 417.258 
L 134.481926 417.258 
L 134.481926 399.702 
L 134.481926 399.702 
z
" style="fill:#009928;"/>
   </g>
   <g id="patch_68">
    <path clip-path="url(#pf72fa25161)" d="M 134.720567 392.178 
L 134.720567 392.178 
L 134.720567 374.622 
L 134.720567 374.622 
z
" style="fill:#009928;"/>
   </g>
   <g id="patch_69">
    <path clip-path="url(#pf72fa25161)" d="M 136.203515 367.098 
L 136.203515 367.098 
L 136.203515 349.542 
L 136.203515 349.542 
z
" style="fill:#009928;"/>
   </g>
   <g id="patch_70">
    <path clip-path="url(#pf72fa25161)" d="M 141.344933 342.018 
L 141.344933 342.018 
L 141.344933 324.462 
L 141.344933 324.462 
z
" style="fill:#009928;"/>
   </g>
   <g id="patch_71">
    <path clip-path="url(#pf72fa25161)" d="M 148.54305 316.938 
L 148.657669 316.938 
L 148.657669 299.382 
L 148.54305 299.382 
z
" style="fill:#009928;"/>
   </g>
   <g id="patch_72">
    <path clip-path="url(#pf72fa25161)" d="M 175.568471 291.858 
L 175.568471 291.858 
L 175.568471 274.302 
L 175.568471 274.302 
z
" style="fill:#009928;"/>
   </g>
   <g id="patch_73">
    <path clip-path="url(#pf72fa25161)" d="M 183.025309 266.778 
L 190.000268 266.778 
L 190.000268 249.222 
L 183.025309 249.222 
z
" style="fill:#009928;"/>
   </g>
   <g id="patch_74">
    <path clip-path="url(#pf72fa25161)" d="M 168.089455 241.698 
L 195.545079 241.698 
L 195.545079 224.142 
L 168.089455 224.142 
z
" style="fill:#009928;"/>
   </g>
   <g id="patch_75">
    <path clip-path="url(#pf72fa25161)" d="M 233.983726 216.618 
L 246.735388 216.618 
L 246.735388 199.062 
L 233.983726 199.062 
z
" style="fill:#009928;"/>
   </g>
   <g id="patch_76">
    <path clip-path="url(#pf72fa25161)" d="M 232.059829 191.538 
L 257.053992 191.538 
L 257.053992 173.982 
L 232.059829 173.982 
z
" style="fill:#009928;"/>
   </g>
   <g id="patch_77">
    <path clip-path="url(#pf72fa25161)" d="M 243.229208 166.458 
L 260.816671 166.458 
L 260.816671 148.902 
L 243.229208 148.902 
z
" style="fill:#009928;"/>
   </g>
   <g id="patch_78">
    <path clip-path="url(#pf72fa25161)" d="M 254.543973 141.378 
L 298.831299 141.378 
L 298.831299 123.822 
L 254.543973 123.822 
z
" style="fill:#009928;"/>
   </g>
   <g id="patch_79">
    <path clip-path="url(#pf72fa25161)" d="M 338.391851 116.298 
L 361.325802 116.298 
L 361.325802 98.742 
L 338.391851 98.742 
z
" style="fill:#009928;"/>
   </g>
   <g id="patch_80">
    <path clip-path="url(#pf72fa25161)" d="M 316.969333 91.218 
L 386.273002 91.218 
L 386.273002 73.662 
L 316.969333 73.662 
z
" style="fill:#009928;"/>
   </g>
   <g id="patch_81">
    <path clip-path="url(#pf72fa25161)" d="M 435.911174 66.138 
L 471.577462 66.138 
L 471.577462 48.582 
L 435.911174 48.582 
z
" style="fill:#009928;"/>
   </g>
   <g id="patch_82">
    <path clip-path="url(#pf72fa25161)" d="M 453.784363 41.058 
L 552.002076 41.058 
L 552.002076 23.502 
L 453.784363 23.502 
z
" style="fill:#009928;"/>
   </g>
   <g id="matplotlib.axis_1">
    <g id="xtick_1">
     <g id="line2d_2">
      <defs>
       <path d="M 0 0 
L 0 3.5 
" id="mc606ac7e5a" style="stroke:#333333;stroke-width:0.8;"/>
      </defs>
      <g>
       <use style="fill:#333333;stroke:#333333;stroke-width:0.8;" x="126.859219" xlink:href="#mc606ac7e5a" y="533.88"/>
      </g>
     </g>
     <g id="text_1">
      <!-- 0.0 -->
      <defs>
       <path d="M 31.78125 66.40625 
Q 24.171875 66.40625 20.328125 58.90625 
Q 16.5 51.421875 16.5 36.375 
Q 16.5 21.390625 20.328125 13.890625 
Q 24.171875 6.390625 31.78125 6.390625 
Q 39.453125 6.390625 43.28125 13.890625 
Q 47.125 21.390625 47.125 36.375 
Q 47.125 51.421875 43.28125 58.90625 
Q 39.453125 66.40625 31.78125 66.40625 
z
M 31.78125 74.21875 
Q 44.046875 74.21875 50.515625 64.515625 
Q 56.984375 54.828125 56.984375 36.375 
Q 56.984375 17.96875 50.515625 8.265625 
Q 44.046875 -1.421875 31.78125 -1.421875 
Q 19.53125 -1.421875 13.0625 8.265625 
Q 6.59375 17.96875 6.59375 36.375 
Q 6.59375 54.828125 13.0625 64.515625 
Q 19.53125 74.21875 31.78125 74.21875 
z
" id="DejaVuSans-48"/>
       <path d="M 10.6875 12.40625 
L 21 12.40625 
L 21 0 
L 10.6875 0 
z
" id="DejaVuSans-46"/>
      </defs>
      <g style="fill:#333333;" transform="translate(118.1125 549.238281)scale(0.11 -0.11)">
       <use xlink:href="#DejaVuSans-48"/>
       <use x="63.623047" xlink:href="#DejaVuSans-46"/>
       <use x="95.410156" xlink:href="#DejaVuSans-48"/>
      </g>
     </g>
    </g>
    <g id="xtick_2">
     <g id="line2d_3">
      <g>
       <use style="fill:#333333;stroke:#333333;stroke-width:0.8;" x="222.421045" xlink:href="#mc606ac7e5a" y="533.88"/>
      </g>
     </g>
     <g id="text_2">
      <!-- 0.5 -->
      <defs>
       <path d="M 10.796875 72.90625 
L 49.515625 72.90625 
L 49.515625 64.59375 
L 19.828125 64.59375 
L 19.828125 46.734375 
Q 21.96875 47.46875 24.109375 47.828125 
Q 26.265625 48.1875 28.421875 48.1875 
Q 40.625 48.1875 47.75 41.5 
Q 54.890625 34.8125 54.890625 23.390625 
Q 54.890625 11.625 47.5625 5.09375 
Q 40.234375 -1.421875 26.90625 -1.421875 
Q 22.3125 -1.421875 17.546875 -0.640625 
Q 12.796875 0.140625 7.71875 1.703125 
L 7.71875 11.625 
Q 12.109375 9.234375 16.796875 8.0625 
Q 21.484375 6.890625 26.703125 6.890625 
Q 35.15625 6.890625 40.078125 11.328125 
Q 45.015625 15.765625 45.015625 23.390625 
Q 45.015625 31 40.078125 35.4375 
Q 35.15625 39.890625 26.703125 39.890625 
Q 22.75 39.890625 18.8125 39.015625 
Q 14.890625 38.140625 10.796875 36.28125 
z
" id="DejaVuSans-53"/>
      </defs>
      <g style="fill:#333333;" transform="translate(213.674326 549.238281)scale(0.11 -0.11)">
       <use xlink:href="#DejaVuSans-48"/>
       <use x="63.623047" xlink:href="#DejaVuSans-46"/>
       <use x="95.410156" xlink:href="#DejaVuSans-53"/>
      </g>
     </g>
    </g>
    <g id="xtick_3">
     <g id="line2d_4">
      <g>
       <use style="fill:#333333;stroke:#333333;stroke-width:0.8;" x="317.982871" xlink:href="#mc606ac7e5a" y="533.88"/>
      </g>
     </g>
     <g id="text_3">
      <!-- 1.0 -->
      <defs>
       <path d="M 12.40625 8.296875 
L 28.515625 8.296875 
L 28.515625 63.921875 
L 10.984375 60.40625 
L 10.984375 69.390625 
L 28.421875 72.90625 
L 38.28125 72.90625 
L 38.28125 8.296875 
L 54.390625 8.296875 
L 54.390625 0 
L 12.40625 0 
z
" id="DejaVuSans-49"/>
      </defs>
      <g style="fill:#333333;" transform="translate(309.236153 549.238281)scale(0.11 -0.11)">
       <use xlink:href="#DejaVuSans-49"/>
       <use x="63.623047" xlink:href="#DejaVuSans-46"/>
       <use x="95.410156" xlink:href="#DejaVuSans-48"/>
      </g>
     </g>
    </g>
    <g id="xtick_4">
     <g id="line2d_5">
      <g>
       <use style="fill:#333333;stroke:#333333;stroke-width:0.8;" x="413.544698" xlink:href="#mc606ac7e5a" y="533.88"/>
      </g>
     </g>
     <g id="text_4">
      <!-- 1.5 -->
      <g style="fill:#333333;" transform="translate(404.797979 549.238281)scale(0.11 -0.11)">
       <use xlink:href="#DejaVuSans-49"/>
       <use x="63.623047" xlink:href="#DejaVuSans-46"/>
       <use x="95.410156" xlink:href="#DejaVuSans-53"/>
      </g>
     </g>
    </g>
    <g id="xtick_5">
     <g id="line2d_6">
      <g>
       <use style="fill:#333333;stroke:#333333;stroke-width:0.8;" x="509.106524" xlink:href="#mc606ac7e5a" y="533.88"/>
      </g>
     </g>
     <g id="text_5">
      <!-- 2.0 -->
      <defs>
       <path d="M 19.1875 8.296875 
L 53.609375 8.296875 
L 53.609375 0 
L 7.328125 0 
L 7.328125 8.296875 
Q 12.9375 14.109375 22.625 23.890625 
Q 32.328125 33.6875 34.8125 36.53125 
Q 39.546875 41.84375 41.421875 45.53125 
Q 43.3125 49.21875 43.3125 52.78125 
Q 43.3125 58.59375 39.234375 62.25 
Q 35.15625 65.921875 28.609375 65.921875 
Q 23.96875 65.921875 18.8125 64.3125 
Q 13.671875 62.703125 7.8125 59.421875 
L 7.8125 69.390625 
Q 13.765625 71.78125 18.9375 73 
Q 24.125 74.21875 28.421875 74.21875 
Q 39.75 74.21875 46.484375 68.546875 
Q 53.21875 62.890625 53.21875 53.421875 
Q 53.21875 48.921875 51.53125 44.890625 
Q 49.859375 40.875 45.40625 35.40625 
Q 44.1875 33.984375 37.640625 27.21875 
Q 31.109375 20.453125 19.1875 8.296875 
z
" id="DejaVuSans-50"/>
      </defs>
      <g style="fill:#333333;" transform="translate(500.359805 549.238281)scale(0.11 -0.11)">
       <use xlink:href="#DejaVuSans-50"/>
       <use x="63.623047" xlink:href="#DejaVuSans-46"/>
       <use x="95.410156" xlink:href="#DejaVuSans-48"/>
      </g>
     </g>
    </g>
    <g id="text_6">
     <!-- mean(|SHAP value|) (average impact on model output magnitude) -->
     <defs>
      <path d="M 52 44.1875 
Q 55.375 50.25 60.0625 53.125 
Q 64.75 56 71.09375 56 
Q 79.640625 56 84.28125 50.015625 
Q 88.921875 44.046875 88.921875 33.015625 
L 88.921875 0 
L 79.890625 0 
L 79.890625 32.71875 
Q 79.890625 40.578125 77.09375 44.375 
Q 74.3125 48.1875 68.609375 48.1875 
Q 61.625 48.1875 57.5625 43.546875 
Q 53.515625 38.921875 53.515625 30.90625 
L 53.515625 0 
L 44.484375 0 
L 44.484375 32.71875 
Q 44.484375 40.625 41.703125 44.40625 
Q 38.921875 48.1875 33.109375 48.1875 
Q 26.21875 48.1875 22.15625 43.53125 
Q 18.109375 38.875 18.109375 30.90625 
L 18.109375 0 
L 9.078125 0 
L 9.078125 54.6875 
L 18.109375 54.6875 
L 18.109375 46.1875 
Q 21.1875 51.21875 25.484375 53.609375 
Q 29.78125 56 35.6875 56 
Q 41.65625 56 45.828125 52.96875 
Q 50 49.953125 52 44.1875 
z
" id="DejaVuSans-109"/>
      <path d="M 56.203125 29.59375 
L 56.203125 25.203125 
L 14.890625 25.203125 
Q 15.484375 15.921875 20.484375 11.0625 
Q 25.484375 6.203125 34.421875 6.203125 
Q 39.59375 6.203125 44.453125 7.46875 
Q 49.3125 8.734375 54.109375 11.28125 
L 54.109375 2.78125 
Q 49.265625 0.734375 44.1875 -0.34375 
Q 39.109375 -1.421875 33.890625 -1.421875 
Q 20.796875 -1.421875 13.15625 6.1875 
Q 5.515625 13.8125 5.515625 26.8125 
Q 5.515625 40.234375 12.765625 48.109375 
Q 20.015625 56 32.328125 56 
Q 43.359375 56 49.78125 48.890625 
Q 56.203125 41.796875 56.203125 29.59375 
z
M 47.21875 32.234375 
Q 47.125 39.59375 43.09375 43.984375 
Q 39.0625 48.390625 32.421875 48.390625 
Q 24.90625 48.390625 20.390625 44.140625 
Q 15.875 39.890625 15.1875 32.171875 
z
" id="DejaVuSans-101"/>
      <path d="M 34.28125 27.484375 
Q 23.390625 27.484375 19.1875 25 
Q 14.984375 22.515625 14.984375 16.5 
Q 14.984375 11.71875 18.140625 8.90625 
Q 21.296875 6.109375 26.703125 6.109375 
Q 34.1875 6.109375 38.703125 11.40625 
Q 43.21875 16.703125 43.21875 25.484375 
L 43.21875 27.484375 
z
M 52.203125 31.203125 
L 52.203125 0 
L 43.21875 0 
L 43.21875 8.296875 
Q 40.140625 3.328125 35.546875 0.953125 
Q 30.953125 -1.421875 24.3125 -1.421875 
Q 15.921875 -1.421875 10.953125 3.296875 
Q 6 8.015625 6 15.921875 
Q 6 25.140625 12.171875 29.828125 
Q 18.359375 34.515625 30.609375 34.515625 
L 43.21875 34.515625 
L 43.21875 35.40625 
Q 43.21875 41.609375 39.140625 45 
Q 35.0625 48.390625 27.6875 48.390625 
Q 23 48.390625 18.546875 47.265625 
Q 14.109375 46.140625 10.015625 43.890625 
L 10.015625 52.203125 
Q 14.9375 54.109375 19.578125 55.046875 
Q 24.21875 56 28.609375 56 
Q 40.484375 56 46.34375 49.84375 
Q 52.203125 43.703125 52.203125 31.203125 
z
" id="DejaVuSans-97"/>
      <path d="M 54.890625 33.015625 
L 54.890625 0 
L 45.90625 0 
L 45.90625 32.71875 
Q 45.90625 40.484375 42.875 44.328125 
Q 39.84375 48.1875 33.796875 48.1875 
Q 26.515625 48.1875 22.3125 43.546875 
Q 18.109375 38.921875 18.109375 30.90625 
L 18.109375 0 
L 9.078125 0 
L 9.078125 54.6875 
L 18.109375 54.6875 
L 18.109375 46.1875 
Q 21.34375 51.125 25.703125 53.5625 
Q 30.078125 56 35.796875 56 
Q 45.21875 56 50.046875 50.171875 
Q 54.890625 44.34375 54.890625 33.015625 
z
" id="DejaVuSans-110"/>
      <path d="M 31 75.875 
Q 24.46875 64.65625 21.28125 53.65625 
Q 18.109375 42.671875 18.109375 31.390625 
Q 18.109375 20.125 21.3125 9.0625 
Q 24.515625 -2 31 -13.1875 
L 23.1875 -13.1875 
Q 15.875 -1.703125 12.234375 9.375 
Q 8.59375 20.453125 8.59375 31.390625 
Q 8.59375 42.28125 12.203125 53.3125 
Q 15.828125 64.359375 23.1875 75.875 
z
" id="DejaVuSans-40"/>
      <path d="M 21 76.421875 
L 21 -23.578125 
L 12.703125 -23.578125 
L 12.703125 76.421875 
z
" id="DejaVuSans-124"/>
      <path d="M 53.515625 70.515625 
L 53.515625 60.890625 
Q 47.90625 63.578125 42.921875 64.890625 
Q 37.9375 66.21875 33.296875 66.21875 
Q 25.25 66.21875 20.875 63.09375 
Q 16.5 59.96875 16.5 54.203125 
Q 16.5 49.359375 19.40625 46.890625 
Q 22.3125 44.4375 30.421875 42.921875 
L 36.375 41.703125 
Q 47.40625 39.59375 52.65625 34.296875 
Q 57.90625 29 57.90625 20.125 
Q 57.90625 9.515625 50.796875 4.046875 
Q 43.703125 -1.421875 29.984375 -1.421875 
Q 24.8125 -1.421875 18.96875 -0.25 
Q 13.140625 0.921875 6.890625 3.21875 
L 6.890625 13.375 
Q 12.890625 10.015625 18.65625 8.296875 
Q 24.421875 6.59375 29.984375 6.59375 
Q 38.421875 6.59375 43.015625 9.90625 
Q 47.609375 13.234375 47.609375 19.390625 
Q 47.609375 24.75 44.3125 27.78125 
Q 41.015625 30.8125 33.5 32.328125 
L 27.484375 33.5 
Q 16.453125 35.6875 11.515625 40.375 
Q 6.59375 45.0625 6.59375 53.421875 
Q 6.59375 63.09375 13.40625 68.65625 
Q 20.21875 74.21875 32.171875 74.21875 
Q 37.3125 74.21875 42.625 73.28125 
Q 47.953125 72.359375 53.515625 70.515625 
z
" id="DejaVuSans-83"/>
      <path d="M 9.8125 72.90625 
L 19.671875 72.90625 
L 19.671875 43.015625 
L 55.515625 43.015625 
L 55.515625 72.90625 
L 65.375 72.90625 
L 65.375 0 
L 55.515625 0 
L 55.515625 34.71875 
L 19.671875 34.71875 
L 19.671875 0 
L 9.8125 0 
z
" id="DejaVuSans-72"/>
      <path d="M 34.1875 63.1875 
L 20.796875 26.90625 
L 47.609375 26.90625 
z
M 28.609375 72.90625 
L 39.796875 72.90625 
L 67.578125 0 
L 57.328125 0 
L 50.6875 18.703125 
L 17.828125 18.703125 
L 11.1875 0 
L 0.78125 0 
z
" id="DejaVuSans-65"/>
      <path d="M 19.671875 64.796875 
L 19.671875 37.40625 
L 32.078125 37.40625 
Q 38.96875 37.40625 42.71875 40.96875 
Q 46.484375 44.53125 46.484375 51.125 
Q 46.484375 57.671875 42.71875 61.234375 
Q 38.96875 64.796875 32.078125 64.796875 
z
M 9.8125 72.90625 
L 32.078125 72.90625 
Q 44.34375 72.90625 50.609375 67.359375 
Q 56.890625 61.8125 56.890625 51.125 
Q 56.890625 40.328125 50.609375 34.8125 
Q 44.34375 29.296875 32.078125 29.296875 
L 19.671875 29.296875 
L 19.671875 0 
L 9.8125 0 
z
" id="DejaVuSans-80"/>
      <path id="DejaVuSans-32"/>
      <path d="M 2.984375 54.6875 
L 12.5 54.6875 
L 29.59375 8.796875 
L 46.6875 54.6875 
L 56.203125 54.6875 
L 35.6875 0 
L 23.484375 0 
z
" id="DejaVuSans-118"/>
      <path d="M 9.421875 75.984375 
L 18.40625 75.984375 
L 18.40625 0 
L 9.421875 0 
z
" id="DejaVuSans-108"/>
      <path d="M 8.5 21.578125 
L 8.5 54.6875 
L 17.484375 54.6875 
L 17.484375 21.921875 
Q 17.484375 14.15625 20.5 10.265625 
Q 23.53125 6.390625 29.59375 6.390625 
Q 36.859375 6.390625 41.078125 11.03125 
Q 45.3125 15.671875 45.3125 23.6875 
L 45.3125 54.6875 
L 54.296875 54.6875 
L 54.296875 0 
L 45.3125 0 
L 45.3125 8.40625 
Q 42.046875 3.421875 37.71875 1 
Q 33.40625 -1.421875 27.6875 -1.421875 
Q 18.265625 -1.421875 13.375 4.4375 
Q 8.5 10.296875 8.5 21.578125 
z
M 31.109375 56 
z
" id="DejaVuSans-117"/>
      <path d="M 8.015625 75.875 
L 15.828125 75.875 
Q 23.140625 64.359375 26.78125 53.3125 
Q 30.421875 42.28125 30.421875 31.390625 
Q 30.421875 20.453125 26.78125 9.375 
Q 23.140625 -1.703125 15.828125 -13.1875 
L 8.015625 -13.1875 
Q 14.5 -2 17.703125 9.0625 
Q 20.90625 20.125 20.90625 31.390625 
Q 20.90625 42.671875 17.703125 53.65625 
Q 14.5 64.65625 8.015625 75.875 
z
" id="DejaVuSans-41"/>
      <path d="M 41.109375 46.296875 
Q 39.59375 47.171875 37.8125 47.578125 
Q 36.03125 48 33.890625 48 
Q 26.265625 48 22.1875 43.046875 
Q 18.109375 38.09375 18.109375 28.8125 
L 18.109375 0 
L 9.078125 0 
L 9.078125 54.6875 
L 18.109375 54.6875 
L 18.109375 46.1875 
Q 20.953125 51.171875 25.484375 53.578125 
Q 30.03125 56 36.53125 56 
Q 37.453125 56 38.578125 55.875 
Q 39.703125 55.765625 41.0625 55.515625 
z
" id="DejaVuSans-114"/>
      <path d="M 45.40625 27.984375 
Q 45.40625 37.75 41.375 43.109375 
Q 37.359375 48.484375 30.078125 48.484375 
Q 22.859375 48.484375 18.828125 43.109375 
Q 14.796875 37.75 14.796875 27.984375 
Q 14.796875 18.265625 18.828125 12.890625 
Q 22.859375 7.515625 30.078125 7.515625 
Q 37.359375 7.515625 41.375 12.890625 
Q 45.40625 18.265625 45.40625 27.984375 
z
M 54.390625 6.78125 
Q 54.390625 -7.171875 48.1875 -13.984375 
Q 42 -20.796875 29.203125 -20.796875 
Q 24.46875 -20.796875 20.265625 -20.09375 
Q 16.0625 -19.390625 12.109375 -17.921875 
L 12.109375 -9.1875 
Q 16.0625 -11.328125 19.921875 -12.34375 
Q 23.78125 -13.375 27.78125 -13.375 
Q 36.625 -13.375 41.015625 -8.765625 
Q 45.40625 -4.15625 45.40625 5.171875 
L 45.40625 9.625 
Q 42.625 4.78125 38.28125 2.390625 
Q 33.9375 0 27.875 0 
Q 17.828125 0 11.671875 7.65625 
Q 5.515625 15.328125 5.515625 27.984375 
Q 5.515625 40.671875 11.671875 48.328125 
Q 17.828125 56 27.875 56 
Q 33.9375 56 38.28125 53.609375 
Q 42.625 51.21875 45.40625 46.390625 
L 45.40625 54.6875 
L 54.390625 54.6875 
z
" id="DejaVuSans-103"/>
      <path d="M 9.421875 54.6875 
L 18.40625 54.6875 
L 18.40625 0 
L 9.421875 0 
z
M 9.421875 75.984375 
L 18.40625 75.984375 
L 18.40625 64.59375 
L 9.421875 64.59375 
z
" id="DejaVuSans-105"/>
      <path d="M 18.109375 8.203125 
L 18.109375 -20.796875 
L 9.078125 -20.796875 
L 9.078125 54.6875 
L 18.109375 54.6875 
L 18.109375 46.390625 
Q 20.953125 51.265625 25.265625 53.625 
Q 29.59375 56 35.59375 56 
Q 45.5625 56 51.78125 48.09375 
Q 58.015625 40.1875 58.015625 27.296875 
Q 58.015625 14.40625 51.78125 6.484375 
Q 45.5625 -1.421875 35.59375 -1.421875 
Q 29.59375 -1.421875 25.265625 0.953125 
Q 20.953125 3.328125 18.109375 8.203125 
z
M 48.6875 27.296875 
Q 48.6875 37.203125 44.609375 42.84375 
Q 40.53125 48.484375 33.40625 48.484375 
Q 26.265625 48.484375 22.1875 42.84375 
Q 18.109375 37.203125 18.109375 27.296875 
Q 18.109375 17.390625 22.1875 11.75 
Q 26.265625 6.109375 33.40625 6.109375 
Q 40.53125 6.109375 44.609375 11.75 
Q 48.6875 17.390625 48.6875 27.296875 
z
" id="DejaVuSans-112"/>
      <path d="M 48.78125 52.59375 
L 48.78125 44.1875 
Q 44.96875 46.296875 41.140625 47.34375 
Q 37.3125 48.390625 33.40625 48.390625 
Q 24.65625 48.390625 19.8125 42.84375 
Q 14.984375 37.3125 14.984375 27.296875 
Q 14.984375 17.28125 19.8125 11.734375 
Q 24.65625 6.203125 33.40625 6.203125 
Q 37.3125 6.203125 41.140625 7.25 
Q 44.96875 8.296875 48.78125 10.40625 
L 48.78125 2.09375 
Q 45.015625 0.34375 40.984375 -0.53125 
Q 36.96875 -1.421875 32.421875 -1.421875 
Q 20.0625 -1.421875 12.78125 6.34375 
Q 5.515625 14.109375 5.515625 27.296875 
Q 5.515625 40.671875 12.859375 48.328125 
Q 20.21875 56 33.015625 56 
Q 37.15625 56 41.109375 55.140625 
Q 45.0625 54.296875 48.78125 52.59375 
z
" id="DejaVuSans-99"/>
      <path d="M 18.3125 70.21875 
L 18.3125 54.6875 
L 36.8125 54.6875 
L 36.8125 47.703125 
L 18.3125 47.703125 
L 18.3125 18.015625 
Q 18.3125 11.328125 20.140625 9.421875 
Q 21.96875 7.515625 27.59375 7.515625 
L 36.8125 7.515625 
L 36.8125 0 
L 27.59375 0 
Q 17.1875 0 13.234375 3.875 
Q 9.28125 7.765625 9.28125 18.015625 
L 9.28125 47.703125 
L 2.6875 47.703125 
L 2.6875 54.6875 
L 9.28125 54.6875 
L 9.28125 70.21875 
z
" id="DejaVuSans-116"/>
      <path d="M 30.609375 48.390625 
Q 23.390625 48.390625 19.1875 42.75 
Q 14.984375 37.109375 14.984375 27.296875 
Q 14.984375 17.484375 19.15625 11.84375 
Q 23.34375 6.203125 30.609375 6.203125 
Q 37.796875 6.203125 41.984375 11.859375 
Q 46.1875 17.53125 46.1875 27.296875 
Q 46.1875 37.015625 41.984375 42.703125 
Q 37.796875 48.390625 30.609375 48.390625 
z
M 30.609375 56 
Q 42.328125 56 49.015625 48.375 
Q 55.71875 40.765625 55.71875 27.296875 
Q 55.71875 13.875 49.015625 6.21875 
Q 42.328125 -1.421875 30.609375 -1.421875 
Q 18.84375 -1.421875 12.171875 6.21875 
Q 5.515625 13.875 5.515625 27.296875 
Q 5.515625 40.765625 12.171875 48.375 
Q 18.84375 56 30.609375 56 
z
" id="DejaVuSans-111"/>
      <path d="M 45.40625 46.390625 
L 45.40625 75.984375 
L 54.390625 75.984375 
L 54.390625 0 
L 45.40625 0 
L 45.40625 8.203125 
Q 42.578125 3.328125 38.25 0.953125 
Q 33.9375 -1.421875 27.875 -1.421875 
Q 17.96875 -1.421875 11.734375 6.484375 
Q 5.515625 14.40625 5.515625 27.296875 
Q 5.515625 40.1875 11.734375 48.09375 
Q 17.96875 56 27.875 56 
Q 33.9375 56 38.25 53.625 
Q 42.578125 51.265625 45.40625 46.390625 
z
M 14.796875 27.296875 
Q 14.796875 17.390625 18.875 11.75 
Q 22.953125 6.109375 30.078125 6.109375 
Q 37.203125 6.109375 41.296875 11.75 
Q 45.40625 17.390625 45.40625 27.296875 
Q 45.40625 37.203125 41.296875 42.84375 
Q 37.203125 48.484375 30.078125 48.484375 
Q 22.953125 48.484375 18.875 42.84375 
Q 14.796875 37.203125 14.796875 27.296875 
z
" id="DejaVuSans-100"/>
     </defs>
     <g transform="translate(133.589922 565.460781)scale(0.13 -0.13)">
      <use xlink:href="#DejaVuSans-109"/>
      <use x="97.412109" xlink:href="#DejaVuSans-101"/>
      <use x="158.935547" xlink:href="#DejaVuSans-97"/>
      <use x="220.214844" xlink:href="#DejaVuSans-110"/>
      <use x="283.59375" xlink:href="#DejaVuSans-40"/>
      <use x="322.607422" xlink:href="#DejaVuSans-124"/>
      <use x="356.298828" xlink:href="#DejaVuSans-83"/>
      <use x="419.775391" xlink:href="#DejaVuSans-72"/>
      <use x="494.970703" xlink:href="#DejaVuSans-65"/>
      <use x="563.378906" xlink:href="#DejaVuSans-80"/>
      <use x="623.681641" xlink:href="#DejaVuSans-32"/>
      <use x="655.46875" xlink:href="#DejaVuSans-118"/>
      <use x="714.648438" xlink:href="#DejaVuSans-97"/>
      <use x="775.927734" xlink:href="#DejaVuSans-108"/>
      <use x="803.710938" xlink:href="#DejaVuSans-117"/>
      <use x="867.089844" xlink:href="#DejaVuSans-101"/>
      <use x="928.613281" xlink:href="#DejaVuSans-124"/>
      <use x="962.304688" xlink:href="#DejaVuSans-41"/>
      <use x="1001.318359" xlink:href="#DejaVuSans-32"/>
      <use x="1033.105469" xlink:href="#DejaVuSans-40"/>
      <use x="1072.119141" xlink:href="#DejaVuSans-97"/>
      <use x="1133.398438" xlink:href="#DejaVuSans-118"/>
      <use x="1192.578125" xlink:href="#DejaVuSans-101"/>
      <use x="1254.101562" xlink:href="#DejaVuSans-114"/>
      <use x="1295.214844" xlink:href="#DejaVuSans-97"/>
      <use x="1356.494141" xlink:href="#DejaVuSans-103"/>
      <use x="1419.970703" xlink:href="#DejaVuSans-101"/>
      <use x="1481.494141" xlink:href="#DejaVuSans-32"/>
      <use x="1513.28125" xlink:href="#DejaVuSans-105"/>
      <use x="1541.064453" xlink:href="#DejaVuSans-109"/>
      <use x="1638.476562" xlink:href="#DejaVuSans-112"/>
      <use x="1701.953125" xlink:href="#DejaVuSans-97"/>
      <use x="1763.232422" xlink:href="#DejaVuSans-99"/>
      <use x="1818.212891" xlink:href="#DejaVuSans-116"/>
      <use x="1857.421875" xlink:href="#DejaVuSans-32"/>
      <use x="1889.208984" xlink:href="#DejaVuSans-111"/>
      <use x="1950.390625" xlink:href="#DejaVuSans-110"/>
      <use x="2013.769531" xlink:href="#DejaVuSans-32"/>
      <use x="2045.556641" xlink:href="#DejaVuSans-109"/>
      <use x="2142.96875" xlink:href="#DejaVuSans-111"/>
      <use x="2204.150391" xlink:href="#DejaVuSans-100"/>
      <use x="2267.626953" xlink:href="#DejaVuSans-101"/>
      <use x="2329.150391" xlink:href="#DejaVuSans-108"/>
      <use x="2356.933594" xlink:href="#DejaVuSans-32"/>
      <use x="2388.720703" xlink:href="#DejaVuSans-111"/>
      <use x="2449.902344" xlink:href="#DejaVuSans-117"/>
      <use x="2513.28125" xlink:href="#DejaVuSans-116"/>
      <use x="2552.490234" xlink:href="#DejaVuSans-112"/>
      <use x="2615.966797" xlink:href="#DejaVuSans-117"/>
      <use x="2679.345703" xlink:href="#DejaVuSans-116"/>
      <use x="2718.554688" xlink:href="#DejaVuSans-32"/>
      <use x="2750.341797" xlink:href="#DejaVuSans-109"/>
      <use x="2847.753906" xlink:href="#DejaVuSans-97"/>
      <use x="2909.033203" xlink:href="#DejaVuSans-103"/>
      <use x="2972.509766" xlink:href="#DejaVuSans-110"/>
      <use x="3035.888672" xlink:href="#DejaVuSans-105"/>
      <use x="3063.671875" xlink:href="#DejaVuSans-116"/>
      <use x="3102.880859" xlink:href="#DejaVuSans-117"/>
      <use x="3166.259766" xlink:href="#DejaVuSans-100"/>
      <use x="3229.736328" xlink:href="#DejaVuSans-101"/>
      <use x="3291.259766" xlink:href="#DejaVuSans-41"/>
     </g>
    </g>
   </g>
   <g id="matplotlib.axis_2">
    <g id="ytick_1">
     <g id="text_7">
      <!-- 14 -->
      <defs>
       <path d="M 37.796875 64.3125 
L 12.890625 25.390625 
L 37.796875 25.390625 
z
M 35.203125 72.90625 
L 47.609375 72.90625 
L 47.609375 25.390625 
L 58.015625 25.390625 
L 58.015625 17.1875 
L 47.609375 17.1875 
L 47.609375 0 
L 37.796875 0 
L 37.796875 17.1875 
L 4.890625 17.1875 
L 4.890625 26.703125 
z
" id="DejaVuSans-52"/>
      </defs>
      <g style="fill:#333333;" transform="translate(103.316719 513.738984)scale(0.13 -0.13)">
       <use xlink:href="#DejaVuSans-49"/>
       <use x="63.623047" xlink:href="#DejaVuSans-52"/>
      </g>
     </g>
    </g>
    <g id="ytick_2">
     <g id="text_8">
      <!-- 9 -->
      <defs>
       <path d="M 10.984375 1.515625 
L 10.984375 10.5 
Q 14.703125 8.734375 18.5 7.8125 
Q 22.3125 6.890625 25.984375 6.890625 
Q 35.75 6.890625 40.890625 13.453125 
Q 46.046875 20.015625 46.78125 33.40625 
Q 43.953125 29.203125 39.59375 26.953125 
Q 35.25 24.703125 29.984375 24.703125 
Q 19.046875 24.703125 12.671875 31.3125 
Q 6.296875 37.9375 6.296875 49.421875 
Q 6.296875 60.640625 12.9375 67.421875 
Q 19.578125 74.21875 30.609375 74.21875 
Q 43.265625 74.21875 49.921875 64.515625 
Q 56.59375 54.828125 56.59375 36.375 
Q 56.59375 19.140625 48.40625 8.859375 
Q 40.234375 -1.421875 26.421875 -1.421875 
Q 22.703125 -1.421875 18.890625 -0.6875 
Q 15.09375 0.046875 10.984375 1.515625 
z
M 30.609375 32.421875 
Q 37.25 32.421875 41.125 36.953125 
Q 45.015625 41.5 45.015625 49.421875 
Q 45.015625 57.28125 41.125 61.84375 
Q 37.25 66.40625 30.609375 66.40625 
Q 23.96875 66.40625 20.09375 61.84375 
Q 16.21875 57.28125 16.21875 49.421875 
Q 16.21875 41.5 20.09375 36.953125 
Q 23.96875 32.421875 30.609375 32.421875 
z
" id="DejaVuSans-57"/>
      </defs>
      <g style="fill:#333333;" transform="translate(111.587969 488.658984)scale(0.13 -0.13)">
       <use xlink:href="#DejaVuSans-57"/>
      </g>
     </g>
    </g>
    <g id="ytick_3">
     <g id="text_9">
      <!-- 3 -->
      <defs>
       <path d="M 40.578125 39.3125 
Q 47.65625 37.796875 51.625 33 
Q 55.609375 28.21875 55.609375 21.1875 
Q 55.609375 10.40625 48.1875 4.484375 
Q 40.765625 -1.421875 27.09375 -1.421875 
Q 22.515625 -1.421875 17.65625 -0.515625 
Q 12.796875 0.390625 7.625 2.203125 
L 7.625 11.71875 
Q 11.71875 9.328125 16.59375 8.109375 
Q 21.484375 6.890625 26.8125 6.890625 
Q 36.078125 6.890625 40.9375 10.546875 
Q 45.796875 14.203125 45.796875 21.1875 
Q 45.796875 27.640625 41.28125 31.265625 
Q 36.765625 34.90625 28.71875 34.90625 
L 20.21875 34.90625 
L 20.21875 43.015625 
L 29.109375 43.015625 
Q 36.375 43.015625 40.234375 45.921875 
Q 44.09375 48.828125 44.09375 54.296875 
Q 44.09375 59.90625 40.109375 62.90625 
Q 36.140625 65.921875 28.71875 65.921875 
Q 24.65625 65.921875 20.015625 65.03125 
Q 15.375 64.15625 9.8125 62.3125 
L 9.8125 71.09375 
Q 15.4375 72.65625 20.34375 73.4375 
Q 25.25 74.21875 29.59375 74.21875 
Q 40.828125 74.21875 47.359375 69.109375 
Q 53.90625 64.015625 53.90625 55.328125 
Q 53.90625 49.265625 50.4375 45.09375 
Q 46.96875 40.921875 40.578125 39.3125 
z
" id="DejaVuSans-51"/>
      </defs>
      <g style="fill:#333333;" transform="translate(111.587969 463.578984)scale(0.13 -0.13)">
       <use xlink:href="#DejaVuSans-51"/>
      </g>
     </g>
    </g>
    <g id="ytick_4">
     <g id="text_10">
      <!-- 5 -->
      <g style="fill:#333333;" transform="translate(111.587969 438.498984)scale(0.13 -0.13)">
       <use xlink:href="#DejaVuSans-53"/>
      </g>
     </g>
    </g>
    <g id="ytick_5">
     <g id="text_11">
      <!-- 12 -->
      <g style="fill:#333333;" transform="translate(103.316719 413.418984)scale(0.13 -0.13)">
       <use xlink:href="#DejaVuSans-49"/>
       <use x="63.623047" xlink:href="#DejaVuSans-50"/>
      </g>
     </g>
    </g>
    <g id="ytick_6">
     <g id="text_12">
      <!-- 6 -->
      <defs>
       <path d="M 33.015625 40.375 
Q 26.375 40.375 22.484375 35.828125 
Q 18.609375 31.296875 18.609375 23.390625 
Q 18.609375 15.53125 22.484375 10.953125 
Q 26.375 6.390625 33.015625 6.390625 
Q 39.65625 6.390625 43.53125 10.953125 
Q 47.40625 15.53125 47.40625 23.390625 
Q 47.40625 31.296875 43.53125 35.828125 
Q 39.65625 40.375 33.015625 40.375 
z
M 52.59375 71.296875 
L 52.59375 62.3125 
Q 48.875 64.0625 45.09375 64.984375 
Q 41.3125 65.921875 37.59375 65.921875 
Q 27.828125 65.921875 22.671875 59.328125 
Q 17.53125 52.734375 16.796875 39.40625 
Q 19.671875 43.65625 24.015625 45.921875 
Q 28.375 48.1875 33.59375 48.1875 
Q 44.578125 48.1875 50.953125 41.515625 
Q 57.328125 34.859375 57.328125 23.390625 
Q 57.328125 12.15625 50.6875 5.359375 
Q 44.046875 -1.421875 33.015625 -1.421875 
Q 20.359375 -1.421875 13.671875 8.265625 
Q 6.984375 17.96875 6.984375 36.375 
Q 6.984375 53.65625 15.1875 63.9375 
Q 23.390625 74.21875 37.203125 74.21875 
Q 40.921875 74.21875 44.703125 73.484375 
Q 48.484375 72.75 52.59375 71.296875 
z
" id="DejaVuSans-54"/>
      </defs>
      <g style="fill:#333333;" transform="translate(111.587969 388.338984)scale(0.13 -0.13)">
       <use xlink:href="#DejaVuSans-54"/>
      </g>
     </g>
    </g>
    <g id="ytick_7">
     <g id="text_13">
      <!-- 7 -->
      <defs>
       <path d="M 8.203125 72.90625 
L 55.078125 72.90625 
L 55.078125 68.703125 
L 28.609375 0 
L 18.3125 0 
L 43.21875 64.59375 
L 8.203125 64.59375 
z
" id="DejaVuSans-55"/>
      </defs>
      <g style="fill:#333333;" transform="translate(111.587969 363.258984)scale(0.13 -0.13)">
       <use xlink:href="#DejaVuSans-55"/>
      </g>
     </g>
    </g>
    <g id="ytick_8">
     <g id="text_14">
      <!-- 13 -->
      <g style="fill:#333333;" transform="translate(103.316719 338.178984)scale(0.13 -0.13)">
       <use xlink:href="#DejaVuSans-49"/>
       <use x="63.623047" xlink:href="#DejaVuSans-51"/>
      </g>
     </g>
    </g>
    <g id="ytick_9">
     <g id="text_15">
      <!-- 0 -->
      <g style="fill:#333333;" transform="translate(111.587969 313.098984)scale(0.13 -0.13)">
       <use xlink:href="#DejaVuSans-48"/>
      </g>
     </g>
    </g>
    <g id="ytick_10">
     <g id="text_16">
      <!-- 11 -->
      <g style="fill:#333333;" transform="translate(103.316719 288.018984)scale(0.13 -0.13)">
       <use xlink:href="#DejaVuSans-49"/>
       <use x="63.623047" xlink:href="#DejaVuSans-49"/>
      </g>
     </g>
    </g>
    <g id="ytick_11">
     <g id="text_17">
      <!-- liveness -->
      <defs>
       <path d="M 44.28125 53.078125 
L 44.28125 44.578125 
Q 40.484375 46.53125 36.375 47.5 
Q 32.28125 48.484375 27.875 48.484375 
Q 21.1875 48.484375 17.84375 46.4375 
Q 14.5 44.390625 14.5 40.28125 
Q 14.5 37.15625 16.890625 35.375 
Q 19.28125 33.59375 26.515625 31.984375 
L 29.59375 31.296875 
Q 39.15625 29.25 43.1875 25.515625 
Q 47.21875 21.78125 47.21875 15.09375 
Q 47.21875 7.46875 41.1875 3.015625 
Q 35.15625 -1.421875 24.609375 -1.421875 
Q 20.21875 -1.421875 15.453125 -0.5625 
Q 10.6875 0.296875 5.421875 2 
L 5.421875 11.28125 
Q 10.40625 8.6875 15.234375 7.390625 
Q 20.0625 6.109375 24.8125 6.109375 
Q 31.15625 6.109375 34.5625 8.28125 
Q 37.984375 10.453125 37.984375 14.40625 
Q 37.984375 18.0625 35.515625 20.015625 
Q 33.0625 21.96875 24.703125 23.78125 
L 21.578125 24.515625 
Q 13.234375 26.265625 9.515625 29.90625 
Q 5.8125 33.546875 5.8125 39.890625 
Q 5.8125 47.609375 11.28125 51.796875 
Q 16.75 56 26.8125 56 
Q 31.78125 56 36.171875 55.265625 
Q 40.578125 54.546875 44.28125 53.078125 
z
" id="DejaVuSans-115"/>
      </defs>
      <g style="fill:#333333;" transform="translate(67.160469 262.938984)scale(0.13 -0.13)">
       <use xlink:href="#DejaVuSans-108"/>
       <use x="27.783203" xlink:href="#DejaVuSans-105"/>
       <use x="55.566406" xlink:href="#DejaVuSans-118"/>
       <use x="114.746094" xlink:href="#DejaVuSans-101"/>
       <use x="176.269531" xlink:href="#DejaVuSans-110"/>
       <use x="239.648438" xlink:href="#DejaVuSans-101"/>
       <use x="301.171875" xlink:href="#DejaVuSans-115"/>
       <use x="353.271484" xlink:href="#DejaVuSans-115"/>
      </g>
     </g>
    </g>
    <g id="ytick_12">
     <g id="text_18">
      <!-- duration_ms -->
      <defs>
       <path d="M 50.984375 -16.609375 
L 50.984375 -23.578125 
L -0.984375 -23.578125 
L -0.984375 -16.609375 
z
" id="DejaVuSans-95"/>
      </defs>
      <g style="fill:#333333;" transform="translate(39.220625 237.858984)scale(0.13 -0.13)">
       <use xlink:href="#DejaVuSans-100"/>
       <use x="63.476562" xlink:href="#DejaVuSans-117"/>
       <use x="126.855469" xlink:href="#DejaVuSans-114"/>
       <use x="167.96875" xlink:href="#DejaVuSans-97"/>
       <use x="229.248047" xlink:href="#DejaVuSans-116"/>
       <use x="268.457031" xlink:href="#DejaVuSans-105"/>
       <use x="296.240234" xlink:href="#DejaVuSans-111"/>
       <use x="357.421875" xlink:href="#DejaVuSans-110"/>
       <use x="420.800781" xlink:href="#DejaVuSans-95"/>
       <use x="470.800781" xlink:href="#DejaVuSans-109"/>
       <use x="568.212891" xlink:href="#DejaVuSans-115"/>
      </g>
     </g>
    </g>
    <g id="ytick_13">
     <g id="text_19">
      <!-- valence -->
      <g style="fill:#333333;" transform="translate(69.201875 212.778984)scale(0.13 -0.13)">
       <use xlink:href="#DejaVuSans-118"/>
       <use x="59.179688" xlink:href="#DejaVuSans-97"/>
       <use x="120.458984" xlink:href="#DejaVuSans-108"/>
       <use x="148.242188" xlink:href="#DejaVuSans-101"/>
       <use x="209.765625" xlink:href="#DejaVuSans-110"/>
       <use x="273.144531" xlink:href="#DejaVuSans-99"/>
       <use x="328.125" xlink:href="#DejaVuSans-101"/>
      </g>
     </g>
    </g>
    <g id="ytick_14">
     <g id="text_20">
      <!-- tempo -->
      <g style="fill:#333333;" transform="translate(77.893594 187.698984)scale(0.13 -0.13)">
       <use xlink:href="#DejaVuSans-116"/>
       <use x="39.208984" xlink:href="#DejaVuSans-101"/>
       <use x="100.732422" xlink:href="#DejaVuSans-109"/>
       <use x="198.144531" xlink:href="#DejaVuSans-112"/>
       <use x="261.621094" xlink:href="#DejaVuSans-111"/>
      </g>
     </g>
    </g>
    <g id="ytick_15">
     <g id="text_21">
      <!-- energy -->
      <defs>
       <path d="M 32.171875 -5.078125 
Q 28.375 -14.84375 24.75 -17.8125 
Q 21.140625 -20.796875 15.09375 -20.796875 
L 7.90625 -20.796875 
L 7.90625 -13.28125 
L 13.1875 -13.28125 
Q 16.890625 -13.28125 18.9375 -11.515625 
Q 21 -9.765625 23.484375 -3.21875 
L 25.09375 0.875 
L 2.984375 54.6875 
L 12.5 54.6875 
L 29.59375 11.921875 
L 46.6875 54.6875 
L 56.203125 54.6875 
z
" id="DejaVuSans-121"/>
      </defs>
      <g style="fill:#333333;" transform="translate(74.558281 162.618984)scale(0.13 -0.13)">
       <use xlink:href="#DejaVuSans-101"/>
       <use x="61.523438" xlink:href="#DejaVuSans-110"/>
       <use x="124.902344" xlink:href="#DejaVuSans-101"/>
       <use x="186.425781" xlink:href="#DejaVuSans-114"/>
       <use x="225.789062" xlink:href="#DejaVuSans-103"/>
       <use x="289.265625" xlink:href="#DejaVuSans-121"/>
      </g>
     </g>
    </g>
    <g id="ytick_16">
     <g id="text_22">
      <!-- loudness -->
      <g style="fill:#333333;" transform="translate(62.019375 137.538984)scale(0.13 -0.13)">
       <use xlink:href="#DejaVuSans-108"/>
       <use x="27.783203" xlink:href="#DejaVuSans-111"/>
       <use x="88.964844" xlink:href="#DejaVuSans-117"/>
       <use x="152.34375" xlink:href="#DejaVuSans-100"/>
       <use x="215.820312" xlink:href="#DejaVuSans-110"/>
       <use x="279.199219" xlink:href="#DejaVuSans-101"/>
       <use x="340.722656" xlink:href="#DejaVuSans-115"/>
       <use x="392.822266" xlink:href="#DejaVuSans-115"/>
      </g>
     </g>
    </g>
    <g id="ytick_17">
     <g id="text_23">
      <!-- instrumentalness -->
      <g style="fill:#333333;" transform="translate(7.2 112.458984)scale(0.13 -0.13)">
       <use xlink:href="#DejaVuSans-105"/>
       <use x="27.783203" xlink:href="#DejaVuSans-110"/>
       <use x="91.162109" xlink:href="#DejaVuSans-115"/>
       <use x="143.261719" xlink:href="#DejaVuSans-116"/>
       <use x="182.470703" xlink:href="#DejaVuSans-114"/>
       <use x="223.583984" xlink:href="#DejaVuSans-117"/>
       <use x="286.962891" xlink:href="#DejaVuSans-109"/>
       <use x="384.375" xlink:href="#DejaVuSans-101"/>
       <use x="445.898438" xlink:href="#DejaVuSans-110"/>
       <use x="509.277344" xlink:href="#DejaVuSans-116"/>
       <use x="548.486328" xlink:href="#DejaVuSans-97"/>
       <use x="609.765625" xlink:href="#DejaVuSans-108"/>
       <use x="637.548828" xlink:href="#DejaVuSans-110"/>
       <use x="700.927734" xlink:href="#DejaVuSans-101"/>
       <use x="762.451172" xlink:href="#DejaVuSans-115"/>
       <use x="814.550781" xlink:href="#DejaVuSans-115"/>
      </g>
     </g>
    </g>
    <g id="ytick_18">
     <g id="text_24">
      <!-- acousticness -->
      <g style="fill:#333333;" transform="translate(36.14125 87.378984)scale(0.13 -0.13)">
       <use xlink:href="#DejaVuSans-97"/>
       <use x="61.279297" xlink:href="#DejaVuSans-99"/>
       <use x="116.259766" xlink:href="#DejaVuSans-111"/>
       <use x="177.441406" xlink:href="#DejaVuSans-117"/>
       <use x="240.820312" xlink:href="#DejaVuSans-115"/>
       <use x="292.919922" xlink:href="#DejaVuSans-116"/>
       <use x="332.128906" xlink:href="#DejaVuSans-105"/>
       <use x="359.912109" xlink:href="#DejaVuSans-99"/>
       <use x="414.892578" xlink:href="#DejaVuSans-110"/>
       <use x="478.271484" xlink:href="#DejaVuSans-101"/>
       <use x="539.794922" xlink:href="#DejaVuSans-115"/>
       <use x="591.894531" xlink:href="#DejaVuSans-115"/>
      </g>
     </g>
    </g>
    <g id="ytick_19">
     <g id="text_25">
      <!-- danceability -->
      <defs>
       <path d="M 48.6875 27.296875 
Q 48.6875 37.203125 44.609375 42.84375 
Q 40.53125 48.484375 33.40625 48.484375 
Q 26.265625 48.484375 22.1875 42.84375 
Q 18.109375 37.203125 18.109375 27.296875 
Q 18.109375 17.390625 22.1875 11.75 
Q 26.265625 6.109375 33.40625 6.109375 
Q 40.53125 6.109375 44.609375 11.75 
Q 48.6875 17.390625 48.6875 27.296875 
z
M 18.109375 46.390625 
Q 20.953125 51.265625 25.265625 53.625 
Q 29.59375 56 35.59375 56 
Q 45.5625 56 51.78125 48.09375 
Q 58.015625 40.1875 58.015625 27.296875 
Q 58.015625 14.40625 51.78125 6.484375 
Q 45.5625 -1.421875 35.59375 -1.421875 
Q 29.59375 -1.421875 25.265625 0.953125 
Q 20.953125 3.328125 18.109375 8.203125 
L 18.109375 0 
L 9.078125 0 
L 9.078125 75.984375 
L 18.109375 75.984375 
z
" id="DejaVuSans-98"/>
      </defs>
      <g style="fill:#333333;" transform="translate(40.408906 62.298984)scale(0.13 -0.13)">
       <use xlink:href="#DejaVuSans-100"/>
       <use x="63.476562" xlink:href="#DejaVuSans-97"/>
       <use x="124.755859" xlink:href="#DejaVuSans-110"/>
       <use x="188.134766" xlink:href="#DejaVuSans-99"/>
       <use x="243.115234" xlink:href="#DejaVuSans-101"/>
       <use x="304.638672" xlink:href="#DejaVuSans-97"/>
       <use x="365.917969" xlink:href="#DejaVuSans-98"/>
       <use x="429.394531" xlink:href="#DejaVuSans-105"/>
       <use x="457.177734" xlink:href="#DejaVuSans-108"/>
       <use x="484.960938" xlink:href="#DejaVuSans-105"/>
       <use x="512.744141" xlink:href="#DejaVuSans-116"/>
       <use x="551.953125" xlink:href="#DejaVuSans-121"/>
      </g>
     </g>
    </g>
    <g id="ytick_20">
     <g id="text_26">
      <!-- speechiness -->
      <defs>
       <path d="M 54.890625 33.015625 
L 54.890625 0 
L 45.90625 0 
L 45.90625 32.71875 
Q 45.90625 40.484375 42.875 44.328125 
Q 39.84375 48.1875 33.796875 48.1875 
Q 26.515625 48.1875 22.3125 43.546875 
Q 18.109375 38.921875 18.109375 30.90625 
L 18.109375 0 
L 9.078125 0 
L 9.078125 75.984375 
L 18.109375 75.984375 
L 18.109375 46.1875 
Q 21.34375 51.125 25.703125 53.5625 
Q 30.078125 56 35.796875 56 
Q 45.21875 56 50.046875 50.171875 
Q 54.890625 44.34375 54.890625 33.015625 
z
" id="DejaVuSans-104"/>
      </defs>
      <g style="fill:#333333;" transform="translate(40.055469 37.218984)scale(0.13 -0.13)">
       <use xlink:href="#DejaVuSans-115"/>
       <use x="52.099609" xlink:href="#DejaVuSans-112"/>
       <use x="115.576172" xlink:href="#DejaVuSans-101"/>
       <use x="177.099609" xlink:href="#DejaVuSans-101"/>
       <use x="238.623047" xlink:href="#DejaVuSans-99"/>
       <use x="293.603516" xlink:href="#DejaVuSans-104"/>
       <use x="356.982422" xlink:href="#DejaVuSans-105"/>
       <use x="384.765625" xlink:href="#DejaVuSans-110"/>
       <use x="448.144531" xlink:href="#DejaVuSans-101"/>
       <use x="509.667969" xlink:href="#DejaVuSans-115"/>
       <use x="561.767578" xlink:href="#DejaVuSans-115"/>
      </g>
     </g>
    </g>
   </g>
   <g id="patch_83">
    <path d="M 126.859219 533.88 
L 573.259219 533.88 
" style="fill:none;stroke:#000000;stroke-linecap:square;stroke-linejoin:miter;stroke-width:0.8;"/>
   </g>
   <g id="legend_1">
    <g id="patch_84">
     <path d="M 474.673594 467.743125 
L 498.673594 467.743125 
L 498.673594 459.343125 
L 474.673594 459.343125 
z
" style="fill:#008bfb;"/>
    </g>
    <g id="text_27">
     <!-- hip-hop -->
     <defs>
      <path d="M 4.890625 31.390625 
L 31.203125 31.390625 
L 31.203125 23.390625 
L 4.890625 23.390625 
z
" id="DejaVuSans-45"/>
     </defs>
     <g transform="translate(508.273594 467.743125)scale(0.12 -0.12)">
      <use xlink:href="#DejaVuSans-104"/>
      <use x="63.378906" xlink:href="#DejaVuSans-105"/>
      <use x="91.162109" xlink:href="#DejaVuSans-112"/>
      <use x="154.638672" xlink:href="#DejaVuSans-45"/>
      <use x="190.722656" xlink:href="#DejaVuSans-104"/>
      <use x="254.101562" xlink:href="#DejaVuSans-111"/>
      <use x="315.283203" xlink:href="#DejaVuSans-112"/>
     </g>
    </g>
    <g id="patch_85">
     <path d="M 474.673594 485.356875 
L 498.673594 485.356875 
L 498.673594 476.956875 
L 474.673594 476.956875 
z
" style="fill:#c44ed4;"/>
    </g>
    <g id="text_28">
     <!-- alt-metal -->
     <g transform="translate(508.273594 485.356875)scale(0.12 -0.12)">
      <use xlink:href="#DejaVuSans-97"/>
      <use x="61.279297" xlink:href="#DejaVuSans-108"/>
      <use x="89.0625" xlink:href="#DejaVuSans-116"/>
      <use x="128.271484" xlink:href="#DejaVuSans-45"/>
      <use x="164.355469" xlink:href="#DejaVuSans-109"/>
      <use x="261.767578" xlink:href="#DejaVuSans-101"/>
      <use x="323.291016" xlink:href="#DejaVuSans-116"/>
      <use x="362.5" xlink:href="#DejaVuSans-97"/>
      <use x="423.779297" xlink:href="#DejaVuSans-108"/>
     </g>
    </g>
    <g id="patch_86">
     <path d="M 474.673594 502.970625 
L 498.673594 502.970625 
L 498.673594 494.570625 
L 474.673594 494.570625 
z
" style="fill:#ff004f;"/>
    </g>
    <g id="text_29">
     <!-- rock -->
     <defs>
      <path d="M 9.078125 75.984375 
L 18.109375 75.984375 
L 18.109375 31.109375 
L 44.921875 54.6875 
L 56.390625 54.6875 
L 27.390625 29.109375 
L 57.625 0 
L 45.90625 0 
L 18.109375 26.703125 
L 18.109375 0 
L 9.078125 0 
z
" id="DejaVuSans-107"/>
     </defs>
     <g transform="translate(508.273594 502.970625)scale(0.12 -0.12)">
      <use xlink:href="#DejaVuSans-114"/>
      <use x="38.863281" xlink:href="#DejaVuSans-111"/>
      <use x="100.044922" xlink:href="#DejaVuSans-99"/>
      <use x="155.025391" xlink:href="#DejaVuSans-107"/>
     </g>
    </g>
    <g id="patch_87">
     <path d="M 474.673594 520.584375 
L 498.673594 520.584375 
L 498.673594 512.184375 
L 474.673594 512.184375 
z
" style="fill:#009928;"/>
    </g>
    <g id="text_30">
     <!-- pop -->
     <g transform="translate(508.273594 520.584375)scale(0.12 -0.12)">
      <use xlink:href="#DejaVuSans-112"/>
      <use x="63.476562" xlink:href="#DejaVuSans-111"/>
      <use x="124.658203" xlink:href="#DejaVuSans-112"/>
     </g>
    </g>
   </g>
  </g>
 </g>
 <defs>
  <clipPath id="pf72fa25161">
   <rect height="526.68" width="446.4" x="126.859219" y="7.2"/>
  </clipPath>
 </defs>
</svg>
